HIERARCHY
ROOT Hips
{
	OFFSET 0.000000 0.000000 0.000000
	CHANNELS 6 Xposition Yposition Zposition Zrotation Yrotation Xrotation 
	JOINT LHipJoint
	{
		OFFSET 0.000000 0.000000 0.000000
		CHANNELS 3 Zrotation Yrotation Xrotation
		JOINT LeftUpLeg
		{
			OFFSET 1.363060 -1.794630 0.839290
			CHANNELS 3 Zrotation Yrotation Xrotation
			JOINT LeftLeg
			{
				OFFSET 2.448110 -6.726130 0.000000
				CHANNELS 3 Zrotation Yrotation Xrotation
				JOINT LeftFoot
				{
					OFFSET 2.562200 -7.039590 0.000000
					CHANNELS 3 Zrotation Yrotation Xrotation
					JOINT LeftToeBase
					{
						OFFSET 0.157640 -0.433110 2.322550
						CHANNELS 3 Zrotation Yrotation Xrotation
						End Site
						{
							OFFSET 0.000000 0.000000 0.000000
						}
					}
				}
			}
		}
	}
	JOINT RHipJoint
	{
		OFFSET 0.000000 0.000000 0.000000
		CHANNELS 3 Zrotation Yrotation Xrotation
		JOINT RightUpLeg
		{
			OFFSET -1.305520 -1.794630 0.839290
			CHANNELS 3 Zrotation Yrotation Xrotation
			JOINT RightLeg
			{
				OFFSET -2.542530 -6.985550 0.000000
				CHANNELS 3 Zrotation Yrotation Xrotation
				JOINT RightFoot
				{
					OFFSET -2.568260 -7.056230 0.000000
					CHANNELS 3 Zrotation Yrotation Xrotation
					JOINT RightToeBase
					{
						OFFSET -0.164730 -0.452590 2.363150
						CHANNELS 3 Zrotation Yrotation Xrotation
						End Site
						{
							OFFSET 0.000000 0.000000 0.000000
						}
					}
				}
			}
		}
	}
}
MOTION
Frames: 14
Frame Time: 0.008333
4.855353 17.292239 0.884646 -176.736609 -66.451366 -174.232637 -12.269560 2.631425 0.239152 -7.021391 29.552507 -13.122474 -2.664108 -1.737963 1.057341 1.778697 13.454285 -4.159217 0.785300 -0.000000 -25.347201 8.007312 -3.602705 7.130311 5.274551 7.669519 -11.746082 3.615054 1.740868 -3.881759 1.566512 10.515361 3.116201 1.430700 0.000000 -31.968800
4.846957 17.292247 0.885832 -176.760906 -65.630647 -173.994142 -12.288934 2.622502 0.176730 -7.190399 29.935728 -13.407671 -2.685792 -1.739381 1.175276 1.825278 13.740366 -4.270263 0.777200 0.000000 -25.227700 7.962606 -3.597737 7.246506 5.203146 8.107632 -12.206854 3.641378 1.726273 -3.668787 1.616228 10.907658 3.193990 1.513400 0.000000 -32.064200
4.839729 17.292184 0.886907 -176.789336 -64.824982 -173.736834 -12.305348 2.618895 0.111175 -7.383303 30.346721 -13.726000 -2.716809 -1.738332 1.278469 1.862746 13.967351 -4.359516 0.769600 -0.000000 -25.145700 7.920415 -3.586515 7.361913 5.122755 8.541577 -12.677322 3.666679 1.715741 -3.473589 1.664045 11.277309 3.277863 1.593300 0.000001 -32.160801
4.833747 17.292022 0.887801 -176.819826 -64.042944 -173.463359 -12.318530 2.621470 0.043885 -7.600038 30.783829 -14.078025 -2.757750 -1.734731 1.363555 1.889761 14.127340 -4.424696 0.763200 0.000000 -25.103700 7.881071 -3.568769 7.475350 5.035770 8.963895 -13.159043 3.691220 1.709212 -3.291099 1.709775 11.622143 3.364291 1.669500 0.000000 -32.254700
4.828927 17.291824 0.888235 -176.851917 -63.290962 -173.166120 -12.327244 2.631162 -0.019955 -7.849129 31.237036 -14.478572 -2.809113 -1.729160 1.430330 1.906581 14.220258 -4.466687 0.758301 0.000000 -25.104100 7.844331 -3.545200 7.591042 4.941052 9.378320 -13.667630 3.714973 1.706940 -3.113718 1.752802 11.933044 3.447716 1.739500 -0.000000 -32.336700
4.825347 17.291605 0.888253 -176.880896 -62.575510 -172.853981 -12.331803 2.648118 -0.080349 -8.124791 31.702230 -14.918076 -2.870056 -1.721365 1.474127 1.912808 14.244644 -4.482829 0.755800 -0.000000 -25.147600 7.810555 -3.515340 7.705360 4.843328 9.775588 -14.196688 3.738320 1.708313 -2.937656 1.793242 12.211364 3.527938 1.803200 0.000000 -32.408500
4.822956 17.291448 0.887623 -176.905962 -61.901759 -172.520317 -12.330929 2.672750 -0.131646 -8.434922 32.163300 -15.409142 -2.939889 -1.711978 1.495628 1.909955 14.207595 -4.474782 0.756200 0.000000 -25.231700 7.779636 -3.479945 7.821835 4.741680 10.157964 -14.759614 3.761291 1.713541 -2.758678 1.830756 12.450006 3.603183 1.859100 0.000001 -32.469900
4.822234 17.291427 0.887036 -176.916065 -61.272720 -172.199473 -12.327574 2.703214 -0.182026 -8.750395 32.626138 -15.907146 -3.015414 -1.699621 1.485145 1.897342 14.109722 -4.436711 0.760400 -0.000000 -25.353600 7.752270 -3.436673 7.926577 4.649645 10.504809 -15.316810 3.784727 1.720982 -2.579784 1.865997 12.661741 3.679657 1.909900 -0.000001 -32.529400
4.823351 17.291711 0.886802 -176.905291 -60.690739 -171.904228 -12.322669 2.738218 -0.232509 -9.059900 33.082979 -16.396602 -3.094070 -1.684125 1.439798 1.876266 13.959748 -4.368036 0.769000 0.000000 -25.506900 7.728594 -3.384851 8.015213 4.573848 10.810640 -15.854465 3.809019 1.730221 -2.404174 1.898952 12.847862 3.761770 1.956700 0.000000 -32.592900
4.826130 17.292374 0.886629 -176.878133 -60.160926 -171.618819 -12.314292 2.777916 -0.274831 -9.375703 33.507651 -16.896585 -3.174177 -1.666597 1.365303 1.850249 13.775313 -4.274382 0.782100 0.000000 -25.683500 7.708561 -3.325940 8.094261 4.509703 11.083849 -16.389018 3.833733 1.742214 -2.234970 1.929002 12.996923 3.851461 1.997700 0.000000 -32.664400
4.830818 17.293555 0.887161 -176.826071 -59.685797 -171.367975 -12.305142 2.820300 -0.314385 -9.673205 33.898653 -17.371188 -3.252050 -1.646369 1.256552 1.820183 13.564997 -4.153625 0.799900 0.000000 -25.876300 7.692573 -3.258586 8.153890 4.466849 11.311806 -16.885962 3.859377 1.756429 -2.082326 1.956322 13.115803 3.956370 2.035000 -0.000000 -32.753100
4.837581 17.295345 0.888616 -176.751577 -59.270778 -171.155253 -12.295603 2.864327 -0.349968 -9.945691 34.242420 -17.811195 -3.324953 -1.623641 1.116174 1.788276 13.341734 -4.009252 0.822400 -0.000000 -26.073300 7.680887 -3.182905 8.192456 4.446786 11.492364 -17.334069 3.885757 1.773289 -1.954943 1.980501 13.200984 4.079858 2.068600 0.000000 -32.868600
4.846742 17.297801 0.891857 -176.647337 -58.917899 -171.012394 -12.289333 2.907540 -0.390036 -10.160414 34.546777 -18.170534 -3.389344 -1.597482 0.938927 1.754387 13.108706 -3.839185 0.848901 -0.000000 -26.268900 7.674058 -3.097292 8.197877 4.460719 11.610691 -17.688811 3.913317 1.792054 -1.863620 2.001669 13.262057 4.227773 2.100800 -0.000000 -33.013900
4.858329 17.300917 0.896912 -176.519571 -58.633920 -170.935463 -12.286119 2.949622 -0.432191 -10.316261 34.799661 -18.447065 -3.443530 -1.568391 0.729713 1.720268 12.875333 -3.648019 0.878800 0.000000 -26.455000 7.672451 -3.002734 8.171307 4.505781 11.667826 -17.945562 3.941385 1.813427 -1.815516 2.019116 13.292228 4.399189 2.130100 0.000000 -33.191500
